<?xml version="1.0" encoding="UTF-8" ?>
<!DOCTYPE svg PUBLIC "-//W3C//DTD SVG 1.1//EN" "http://www.w3.org/Graphics/SVG/1.1/DTD/svg11.dtd">
<svg width="640pt" height="145pt" viewBox="0 0 640 145" version="1.1" xmlns="http://www.w3.org/2000/svg">
<g id="#e60012ff">
<path fill="#e60012" opacity="1.00" d=" M 580.95 7.84 C 591.62 6.51 602.61 15.22 602.87 26.15 C 603.57 33.18 600.14 40.38 594.21 44.22 C 588.22 48.31 579.94 48.74 573.60 45.18 C 567.06 41.72 562.85 34.33 563.30 26.92 C 563.29 17.31 571.49 8.81 580.95 7.84 M 579.56 16.73 C 575.56 18.08 572.44 21.68 571.73 25.84 C 570.74 31.69 574.97 37.83 580.80 38.95 C 587.83 40.66 595.28 34.22 594.60 27.00 C 594.47 19.67 586.40 14.41 579.56 16.73 Z" />
<path fill="#e60012" opacity="1.00" d=" M 15.57 40.05 C 16.11 23.97 29.95 9.82 45.98 8.79 C 56.57 8.50 67.16 8.81 77.75 8.65 C 77.97 10.42 78.21 12.20 78.24 13.99 C 78.17 55.20 78.25 96.41 78.20 137.62 C 72.19 138.14 66.15 137.67 60.13 138.09 C 51.45 138.08 42.22 138.86 34.23 134.77 C 22.98 129.50 15.41 117.45 15.51 105.03 C 15.53 83.37 15.41 61.71 15.57 40.05 M 26.32 37.93 C 25.51 42.25 25.82 46.66 25.78 51.02 C 25.77 68.00 25.80 84.98 25.76 101.96 C 25.75 106.59 26.33 111.38 28.61 115.49 C 32.39 122.46 39.91 127.60 47.96 127.59 C 54.48 127.63 60.99 127.57 67.50 127.59 C 67.50 91.50 67.50 55.41 67.50 19.32 C 60.99 19.34 54.48 19.26 47.97 19.33 C 37.54 19.27 27.95 27.71 26.32 37.93 Z" />
<path fill="#e60012" opacity="1.00" d=" M 90.75 12.98 C 90.87 11.54 90.41 9.77 91.79 8.79 C 97.84 8.50 103.92 8.79 109.98 8.66 C 117.18 8.44 124.49 10.34 130.43 14.46 C 139.44 20.43 145.08 31.17 144.78 41.98 C 144.77 63.32 144.80 84.67 144.77 106.01 C 144.77 116.95 138.57 127.53 129.29 133.22 C 118.02 140.60 104.06 137.72 91.41 138.35 C 90.41 134.30 90.84 130.13 90.78 126.01 C 90.76 88.33 90.82 50.65 90.75 12.98 M 114.69 66.96 C 108.44 67.85 103.33 73.63 103.39 79.97 C 103.27 86.68 109.21 92.87 115.97 92.80 C 123.46 93.47 130.11 86.28 129.42 78.92 C 129.10 71.69 121.82 65.76 114.69 66.96 Z" />
<path fill="#e60012" opacity="1.00" d=" M 164.15 9.09 C 166.75 8.85 169.35 9.03 171.94 9.24 C 177.69 17.28 183.85 25.02 189.70 32.99 C 189.85 25.06 189.75 17.12 189.77 9.18 C 192.34 9.13 194.92 9.12 197.50 9.11 C 197.49 21.54 197.51 33.98 197.49 46.41 C 195.01 46.41 192.53 46.40 190.06 46.38 C 183.94 38.10 177.79 29.84 171.65 21.58 C 171.52 29.85 171.63 38.13 171.58 46.40 C 169.11 46.41 166.64 46.41 164.18 46.43 C 163.53 33.99 163.93 21.53 164.15 9.09 Z" />
<path fill="#e60012" opacity="1.00" d=" M 225.41 9.05 C 228.17 8.86 230.94 8.94 233.69 9.13 C 233.65 21.56 233.71 33.98 233.67 46.41 C 230.92 46.41 228.17 46.41 225.42 46.41 C 225.39 33.96 225.40 21.50 225.41 9.05 Z" />
<path fill="#e60012" opacity="1.00" d=" M 261.66 9.19 C 264.49 9.28 268.41 7.67 270.41 10.44 C 276.05 18.02 281.84 25.50 287.43 33.13 C 287.60 25.01 287.42 16.90 287.54 8.79 C 290.14 8.88 292.74 9.03 295.33 9.19 C 295.29 21.59 295.34 33.99 295.31 46.39 C 292.81 46.40 290.31 46.41 287.81 46.42 C 281.67 38.19 275.45 30.03 269.52 21.65 C 269.29 29.90 269.46 38.15 269.40 46.40 C 266.83 46.41 264.26 46.40 261.69 46.39 C 261.65 33.99 261.72 21.59 261.66 9.19 Z" />
<path fill="#e60012" opacity="1.00" d=" M 321.48 9.11 C 326.96 8.58 332.44 9.23 337.93 9.14 C 343.06 9.20 348.19 8.78 353.32 9.17 C 353.32 11.74 353.32 14.31 353.33 16.87 C 349.40 16.74 345.49 17.08 341.57 17.12 C 341.61 26.89 341.60 36.65 341.58 46.41 C 338.89 46.41 336.20 46.41 333.51 46.41 C 333.48 36.64 333.50 26.87 333.50 17.10 C 329.52 16.78 325.53 16.82 321.55 17.17 C 321.49 14.49 321.49 11.80 321.48 9.11 Z" />
<path fill="#e60012" opacity="1.00" d=" M 380.28 8.87 C 389.97 8.99 399.66 8.60 409.34 9.22 C 409.32 11.40 409.31 13.57 409.31 15.74 C 402.28 15.81 395.25 15.78 388.22 15.76 C 388.04 18.40 387.88 21.04 387.78 23.68 C 394.39 23.88 401.02 23.75 407.64 23.78 C 407.67 26.08 407.68 28.38 407.70 30.68 C 401.20 30.67 394.70 30.71 388.19 30.66 C 387.89 33.57 387.83 36.51 388.15 39.43 C 395.20 39.39 402.26 39.38 409.32 39.43 C 409.31 41.72 409.31 44.01 409.30 46.30 C 399.61 46.32 389.92 46.30 380.24 46.42 C 380.23 33.90 380.14 21.39 380.28 8.87 Z" />
<path fill="#e60012" opacity="1.00" d=" M 439.82 9.32 C 442.50 8.84 445.23 8.82 447.94 9.25 C 453.70 17.27 459.72 25.10 465.61 33.03 C 465.75 25.07 465.67 17.11 465.66 9.15 C 468.24 8.97 470.84 8.94 473.43 9.12 C 473.37 21.54 473.43 33.97 473.40 46.40 C 470.91 46.40 468.42 46.40 465.94 46.40 C 459.83 38.13 453.75 29.84 447.65 21.57 C 447.53 29.85 447.63 38.13 447.58 46.41 C 445.11 46.41 442.66 46.41 440.20 46.42 C 439.56 38.91 440.44 31.39 440.02 23.87 C 439.70 19.02 440.24 14.16 439.82 9.32 Z" />
<path fill="#e60012" opacity="1.00" d=" M 504.66 9.20 C 511.11 8.76 517.63 8.54 524.04 9.44 C 533.80 10.98 541.25 21.34 539.04 31.09 C 537.55 39.20 530.20 45.62 522.03 46.29 C 516.25 46.59 510.47 46.33 504.69 46.39 C 504.66 33.99 504.71 21.59 504.66 9.20 M 512.50 17.09 C 512.50 24.20 512.49 31.30 512.51 38.40 C 515.35 38.40 518.19 38.49 521.04 38.38 C 525.49 38.31 529.46 34.91 530.78 30.75 C 532.82 25.19 528.82 18.42 523.05 17.32 C 519.58 16.58 516.00 16.88 512.50 17.09 Z" />
<path fill="#e60012" opacity="1.00" d=" M 44.50 35.66 C 53.06 32.85 62.35 41.51 59.94 50.19 C 58.59 57.53 49.91 61.87 43.15 58.89 C 37.49 56.65 34.13 49.79 36.12 43.98 C 37.29 40.03 40.54 36.81 44.50 35.66 Z" />
<path fill="#e60012" opacity="1.00" d=" M 185.38 64.70 C 197.15 63.16 209.19 65.25 220.16 69.62 C 218.58 73.73 216.84 77.76 215.14 81.82 C 204.85 77.69 193.28 75.26 182.38 78.37 C 179.45 79.26 176.06 81.66 176.63 85.14 C 177.75 89.32 182.53 90.37 186.15 91.36 C 196.36 93.47 207.05 94.56 216.42 99.48 C 220.61 101.69 224.47 105.35 225.40 110.18 C 226.36 116.14 225.76 122.86 221.68 127.62 C 217.09 133.22 209.81 135.62 202.88 136.64 C 188.66 138.95 173.84 136.43 160.98 130.02 C 163.00 125.95 165.28 122.01 167.45 118.02 C 178.25 123.51 190.85 126.19 202.81 123.38 C 206.54 122.50 210.55 120.20 211.33 116.12 C 211.99 112.36 208.25 109.89 205.13 108.94 C 193.05 105.04 179.39 105.75 168.42 98.70 C 160.73 93.99 159.45 82.56 164.74 75.60 C 169.60 69.13 177.66 66.05 185.38 64.70 Z" />
<path fill="#e60012" opacity="1.00" d=" M 454.88 91.29 C 458.02 78.25 468.76 67.36 481.77 64.11 C 496.70 60.01 514.31 66.29 522.35 79.74 C 518.45 82.84 514.79 86.21 511.08 89.53 C 507.85 84.89 503.38 80.91 497.80 79.51 C 487.67 76.31 475.71 81.80 471.48 91.54 C 468.10 98.47 469.23 107.07 473.81 113.18 C 479.74 121.45 491.72 124.62 500.90 120.12 C 505.26 118.38 508.22 114.64 511.52 111.50 C 514.92 114.96 518.73 117.97 522.36 121.18 C 512.60 137.22 489.73 142.55 473.53 133.42 C 458.74 125.72 450.54 107.43 454.88 91.29 Z" />
<path fill="#e60012" opacity="1.00" d=" M 233.63 65.35 C 238.81 65.29 244.00 65.29 249.18 65.35 C 253.73 82.11 257.79 99.02 262.79 115.65 C 267.01 98.76 272.52 82.21 277.00 65.39 C 281.32 65.27 285.65 65.28 289.97 65.38 C 294.82 82.20 299.49 99.09 304.84 115.76 C 308.78 98.86 313.73 82.21 317.92 65.36 C 323.11 65.28 328.31 65.29 333.51 65.36 C 326.71 88.71 320.28 112.16 313.48 135.51 C 307.83 135.49 302.17 135.49 296.51 135.51 C 292.15 120.32 287.85 105.10 283.68 89.85 C 278.71 104.89 275.06 120.35 270.47 135.51 C 264.85 135.49 259.24 135.49 253.63 135.51 C 246.89 112.14 240.40 88.70 233.63 65.35 Z" />
<path fill="#e60012" opacity="1.00" d=" M 350.68 65.34 C 355.95 65.29 361.23 65.32 366.50 65.31 C 366.50 88.71 366.50 112.10 366.50 135.50 C 361.22 135.50 355.95 135.51 350.68 135.48 C 350.68 112.10 350.69 88.72 350.68 65.34 Z" />
<path fill="#e60012" opacity="1.00" d=" M 383.40 65.31 C 403.31 65.34 423.22 65.25 443.13 65.36 C 443.26 70.33 442.84 75.28 442.81 80.24 C 435.58 80.20 428.35 80.23 421.13 80.22 C 421.01 98.64 421.00 117.04 421.12 135.46 C 416.01 135.52 410.89 135.51 405.78 135.47 C 405.78 117.05 405.78 98.64 405.78 80.22 C 398.34 80.22 390.89 80.21 383.45 80.22 C 383.37 75.25 383.40 70.28 383.40 65.31 Z" />
<path fill="#e60012" opacity="1.00" d=" M 538.31 65.31 C 543.15 65.31 547.99 65.32 552.83 65.30 C 553.47 74.39 552.58 83.50 552.86 92.60 C 563.77 92.79 574.68 92.64 585.60 92.68 C 585.59 83.57 585.60 74.45 585.59 65.33 C 590.50 65.30 595.41 65.29 600.32 65.35 C 600.31 88.72 600.32 112.10 600.32 135.48 C 595.41 135.51 590.50 135.50 585.59 135.49 C 585.59 126.13 585.59 116.77 585.59 107.41 C 574.77 107.40 563.95 107.41 553.13 107.40 C 552.79 116.78 553.26 126.15 552.81 135.51 C 547.98 135.49 543.14 135.50 538.31 135.50 C 538.31 112.10 538.31 88.71 538.31 65.31 Z" />
<path fill="#e60012" opacity="1.00" d=" M 614.75 126.43 C 615.59 126.37 616.43 126.31 617.29 126.26 C 618.04 128.30 618.93 130.30 619.76 132.31 C 620.45 130.34 621.15 128.37 621.82 126.38 C 622.70 126.35 623.60 126.31 624.50 126.28 C 624.50 129.30 624.49 132.32 624.48 135.34 C 624.06 135.32 623.21 135.29 622.79 135.27 C 622.66 133.21 622.53 131.14 622.42 129.08 C 621.81 131.25 621.24 133.46 620.25 135.49 C 617.39 135.01 617.83 130.92 616.75 128.76 C 616.65 131.17 616.56 133.58 616.29 135.97 C 613.73 133.48 615.10 129.59 614.75 126.43 Z" />
<path fill="#e60012" opacity="1.00" d=" M 605.12 126.68 C 607.92 126.28 610.76 126.29 613.59 126.27 L 613.54 128.28 C 612.85 128.31 611.47 128.38 610.77 128.41 C 610.77 130.78 610.78 133.16 610.78 135.54 C 610.28 135.51 609.28 135.44 608.78 135.41 C 608.78 133.18 608.78 130.95 608.78 128.72 C 607.43 128.27 606.21 127.59 605.12 126.68 Z" />
</g>
</svg>
